<svg xmlns="http://www.w3.org/2000/svg" width="651.897" height="331.871" viewBox="475.479 5.791 651.897 331.871"><g fill="#25D6A2"><path d="M580.83 181.474c-4.488 7.578-10.447 13.096-17.73 16.406s-15.597 5.002-24.793 5.002c-10.447 0-19.717-2.06-27.662-6.106s-14.493-9.564-19.643-16.553c-5.15-6.99-9.05-14.935-11.624-23.983-2.648-9.05-3.9-18.466-3.9-28.177 0-9.417 1.325-18.466 3.9-27.22 2.648-8.756 6.474-16.48 11.624-23.175s11.623-12.065 19.35-16.112c7.797-4.046 16.772-6.106 27.072-6.106 8.313 0 16.186 1.766 23.69 5.297s13.39 8.755 17.73 15.597h.514V5.79h38.624v193.562h-36.564v-17.877h-.588zm-1.62-69.302c-1.103-5.297-2.94-10.005-5.59-14.125-2.648-4.046-6.033-7.357-10.152-9.858-4.194-2.502-9.417-3.827-15.744-3.827s-11.624 1.25-15.965 3.826c-4.342 2.5-7.8 5.885-10.447 10.004-2.648 4.193-4.488 8.902-5.665 14.2-1.178 5.296-1.766 10.888-1.766 16.7 0 5.443.662 10.814 1.912 16.258 1.25 5.444 3.312 10.227 6.106 14.493 2.796 4.267 6.327 7.65 10.594 10.3 4.268 2.648 9.344 3.9 15.303 3.9 6.327 0 11.624-1.252 15.89-3.827 4.27-2.5 7.652-5.886 10.154-10.153s4.342-9.05 5.445-14.493c1.104-5.444 1.618-11.035 1.618-16.773-.073-5.74-.59-11.258-1.692-16.628zM634.24 98.93c3.46-9.123 8.314-16.92 14.64-23.322 6.328-6.4 13.906-11.403 22.808-14.935 8.828-3.53 18.76-5.297 29.796-5.297s21.04 1.766 29.942 5.297c8.976 3.532 16.554 8.46 22.88 14.935 6.327 6.4 11.183 14.2 14.64 23.322s5.15 19.275 5.15 30.458-1.69 21.335-5.15 30.384c-3.457 9.05-8.312 16.773-14.64 23.174-6.326 6.4-13.978 11.33-22.88 14.788-8.975 3.458-18.907 5.15-29.942 5.15s-20.967-1.693-29.796-5.15c-8.828-3.458-16.48-8.387-22.807-14.788-6.325-6.4-11.18-14.125-14.64-23.174-3.457-9.05-5.15-19.128-5.15-30.384 0-11.183 1.693-21.336 5.15-30.458zm34.947 46.863c1.104 5.297 2.942 10.153 5.59 14.346 2.65 4.266 6.107 7.65 10.448 10.152 4.34 2.5 9.784 3.825 16.26 3.825 6.473 0 11.99-1.25 16.405-3.825 4.414-2.5 7.945-5.886 10.594-10.153s4.487-9.05 5.59-14.347c1.105-5.297 1.62-10.814 1.62-16.406s-.516-11.11-1.62-16.553c-1.103-5.444-2.94-10.226-5.59-14.346-2.648-4.12-6.18-7.578-10.594-10.153-4.415-2.648-9.858-3.9-16.406-3.9-6.475 0-11.918 1.325-16.26 3.9-4.34 2.648-7.798 6.033-10.446 10.153-2.648 4.193-4.487 8.975-5.59 14.346-1.105 5.444-1.62 10.962-1.62 16.553s.588 11.11 1.62 16.406zM825.08 5.79v193.562h-38.477V5.792h38.477zM840.235 102.314c.515-9.05 2.796-16.553 6.77-22.512 3.972-5.96 9.048-10.74 15.153-14.346 6.106-3.605 13.022-6.18 20.747-7.725 7.65-1.544 15.376-2.28 23.175-2.28 7.063 0 14.198.516 21.408 1.472 7.21 1.03 13.83 2.943 19.79 5.812s10.814 6.916 14.64 12.065c3.826 5.15 5.666 11.99 5.666 20.45v72.908c0 6.327.367 12.36 1.104 18.172.735 5.812 1.986 10.152 3.825 13.02h-39.065c-.735-2.132-1.324-4.413-1.766-6.62-.44-2.28-.736-4.562-.957-6.916-6.18 6.327-13.39 10.74-21.702 13.316-8.313 2.5-16.774 3.826-25.455 3.826-6.695 0-12.948-.81-18.687-2.428-5.812-1.62-10.813-4.12-15.154-7.578s-7.725-7.798-10.153-13.022c-2.428-5.223-3.678-11.477-3.678-18.687 0-7.944 1.397-14.492 4.193-19.642 2.796-5.15 6.4-9.27 10.814-12.36s9.49-5.37 15.155-6.915 11.403-2.722 17.215-3.68c5.813-.882 11.478-1.617 17.068-2.132s10.594-1.323 14.935-2.427 7.8-2.648 10.3-4.708 3.68-5.076 3.53-9.05c0-4.12-.66-7.43-2.06-9.857-1.323-2.428-3.163-4.34-5.443-5.665s-4.855-2.28-7.872-2.722-6.18-.66-9.638-.66c-7.577 0-13.536 1.618-17.877 4.855-4.34 3.237-6.842 8.68-7.578 16.26h-38.402v-.22zm88.946 28.47c-1.618 1.472-3.678 2.576-6.105 3.385-2.428.808-5.076 1.47-7.872 2.06-2.796.514-5.738 1.03-8.828 1.324-3.09.368-6.18.81-9.196 1.324-2.87.515-5.74 1.25-8.535 2.133s-5.224 2.134-7.283 3.68-3.752 3.457-5.003 5.81c-1.25 2.355-1.913 5.298-1.913 8.977 0 3.458.662 6.327 1.912 8.68 1.25 2.355 3.016 4.194 5.15 5.592 2.132 1.323 4.707 2.28 7.576 2.868 2.87.515 5.886.81 8.976.81 7.578 0 13.463-1.25 17.583-3.826 4.12-2.5 7.21-5.59 9.196-9.05 1.987-3.53 3.238-7.062 3.68-10.74.44-3.605.662-6.475.662-8.682v-14.345zM1020.48 59.202V77.08h.515c4.708-7.578 10.667-13.095 17.877-16.553s15.155-5.15 23.837-5.15c11.034 0 20.524 2.06 28.47 6.253s14.567 9.638 19.79 16.553c5.224 6.842 9.123 14.86 11.624 23.983 2.502 9.123 3.826 18.687 3.826 28.62 0 9.416-1.25 18.465-3.826 27.072-2.5 8.68-6.4 16.333-11.55 23.027-5.15 6.695-11.55 11.992-19.275 15.964-7.652 3.972-16.7 5.958-27 5.958-8.682 0-16.7-1.766-23.984-5.297-7.283-3.53-13.316-8.68-18.024-15.596h-.515v66.433H983.77V59.202h36.71zm50.027 111.163c4.268-2.5 7.65-5.812 10.3-9.932 2.648-4.046 4.488-8.83 5.592-14.2 1.103-5.443 1.617-10.96 1.617-16.552s-.59-11.108-1.766-16.552-3.09-10.226-5.812-14.493c-2.722-4.267-6.18-7.65-10.446-10.3-4.268-2.648-9.417-3.9-15.597-3.9-6.327 0-11.624 1.325-15.892 3.9-4.267 2.648-7.65 6.033-10.3 10.153-2.647 4.193-4.487 8.975-5.59 14.346-1.105 5.444-1.62 11.036-1.62 16.774 0 5.59.59 11.11 1.767 16.553 1.177 5.445 3.09 10.153 5.665 14.2 2.648 4.046 6.105 7.357 10.446 9.932 4.342 2.5 9.565 3.825 15.745 3.825 6.402 0 11.625-1.25 15.892-3.752z"/></g><g fill="#3B3B3B"><path d="M486.882 318.9c.662 2.503 1.692 4.71 3.09 6.696s3.237 3.604 5.37 4.855c2.134 1.325 4.782 1.914 7.8 1.914 4.707 0 8.312-1.25 10.96-3.68s4.488-5.664 5.52-9.784h6.4c-1.325 5.96-3.826 10.595-7.505 13.83-3.68 3.238-8.755 4.857-15.376 4.857-4.12 0-7.724-.736-10.74-2.208-3.017-1.472-5.444-3.458-7.356-6.033-1.913-2.575-3.312-5.518-4.194-8.828-.883-3.386-1.397-6.917-1.397-10.595 0-3.458.44-6.843 1.397-10.153.883-3.31 2.354-6.253 4.194-8.9 1.912-2.576 4.34-4.71 7.356-6.328s6.62-2.354 10.74-2.354c4.194 0 7.8.883 10.742 2.574 3.016 1.69 5.37 3.9 7.283 6.695 1.84 2.72 3.237 5.884 4.046 9.415.81 3.53 1.18 7.137 1.03 10.815h-40.39c.076 2.283.37 4.71 1.032 7.21zm31.708-19.568c-.81-2.207-1.912-4.193-3.31-5.96-1.398-1.69-3.164-3.09-5.15-4.192-2.06-1.03-4.34-1.545-6.916-1.545-2.648 0-5.003.516-6.99 1.545-2.06 1.03-3.75 2.428-5.148 4.193s-2.575 3.752-3.384 6.033c-.81 2.28-1.398 4.56-1.692 6.988h33.915c-.147-2.5-.59-4.855-1.325-7.062zM538.896 263.65v72.613h-6.4V263.65h6.4zM588.85 336.19v-9.932h-.222c-.662 1.692-1.692 3.237-3.017 4.708-1.323 1.398-2.794 2.648-4.486 3.605-1.692.957-3.53 1.767-5.444 2.28-1.912.517-3.825.81-5.738.81-3.973 0-7.504-.735-10.447-2.206-2.942-1.472-5.37-3.458-7.356-6.033-1.987-2.573-3.46-5.517-4.342-8.827S546.4 313.678 546.4 310c0-3.753.442-7.284 1.398-10.595.957-3.385 2.428-6.327 4.34-8.828 1.987-2.575 4.415-4.563 7.357-6.033 2.943-1.47 6.4-2.207 10.447-2.207 1.986 0 3.9.22 5.738.736 1.84.44 3.605 1.176 5.224 2.207 1.618.955 3.09 2.207 4.34 3.604 1.25 1.397 2.208 3.09 2.87 5.003h.22v-30.09h6.4v72.613h-5.885v-.22zm-35.094-18.097c.662 2.648 1.692 5.076 3.017 7.136 1.397 2.133 3.163 3.825 5.37 5.15 2.134 1.323 4.782 1.985 7.8 1.985 3.383 0 6.253-.662 8.606-1.986 2.353-1.325 4.267-3.018 5.664-5.15 1.472-2.134 2.5-4.488 3.163-7.137s.957-5.37.957-8.093-.295-5.37-.957-8.093c-.662-2.648-1.69-5.076-3.163-7.136-1.472-2.133-3.384-3.825-5.665-5.15-2.355-1.323-5.225-1.985-8.608-1.985-3.017 0-5.665.662-7.8 1.986-2.132 1.325-3.972 3.018-5.37 5.15-1.396 2.134-2.427 4.488-3.016 7.137-.662 2.648-.956 5.37-.956 8.093 0 2.722.294 5.37.956 8.093zM609.154 318.9c.662 2.503 1.69 4.71 3.09 6.696 1.397 1.986 3.236 3.604 5.37 4.855 2.134 1.325 4.782 1.914 7.8 1.914 4.707 0 8.312-1.25 10.96-3.68 2.65-2.427 4.488-5.664 5.52-9.784h6.4c-1.325 5.96-3.827 10.595-7.505 13.83-3.68 3.238-8.756 4.857-15.377 4.857-4.12 0-7.726-.736-10.74-2.208-3.018-1.472-5.445-3.458-7.358-6.033-1.912-2.575-3.31-5.518-4.193-8.828-.883-3.386-1.397-6.917-1.397-10.595 0-3.458.44-6.843 1.397-10.153.883-3.31 2.354-6.253 4.193-8.9 1.913-2.576 4.34-4.71 7.357-6.328 3.016-1.62 6.62-2.354 10.74-2.354 4.194 0 7.8.883 10.742 2.574 3.016 1.69 5.37 3.9 7.283 6.695 1.84 2.72 3.236 5.884 4.046 9.415s1.177 7.137 1.03 10.815h-40.39c.074 2.283.37 4.71 1.03 7.21zm31.708-19.568c-.81-2.207-1.913-4.193-3.31-5.96-1.398-1.69-3.165-3.09-5.15-4.192-2.06-1.03-4.34-1.545-6.916-1.545-2.648 0-5.003.516-6.99 1.545-2.06 1.03-3.75 2.428-5.148 4.193-1.398 1.692-2.575 3.752-3.385 6.033-.81 2.28-1.397 4.56-1.69 6.988h33.914c-.148-2.5-.515-4.855-1.325-7.062zM660.946 283.736v9.05h.22c1.252-3.165 3.386-5.74 6.476-7.653 3.09-1.912 6.548-2.87 10.3-2.87 3.678 0 6.694.442 9.196 1.4 2.5.956 4.487 2.28 5.96 4.046 1.47 1.69 2.574 3.824 3.162 6.325.59 2.502.883 5.297.883 8.46v33.77h-6.4v-32.74c0-2.206-.22-4.34-.59-6.252-.44-1.913-1.103-3.604-2.132-5.003-1.03-1.397-2.353-2.574-4.12-3.384-1.69-.81-3.898-1.25-6.474-1.25-2.574 0-4.855.44-6.842 1.397-1.986.883-3.678 2.133-5.076 3.752-1.397 1.618-2.5 3.457-3.237 5.664-.808 2.206-1.176 4.56-1.25 7.136v30.604h-6.4v-52.454h6.326zM737.09 318.9c.663 2.503 1.693 4.71 3.09 6.696 1.4 1.986 3.238 3.604 5.372 4.855 2.133 1.325 4.78 1.914 7.798 1.914 4.71 0 8.313-1.25 10.962-3.68s4.487-5.664 5.518-9.784h6.4c-1.324 5.96-3.825 10.595-7.504 13.83-3.68 3.238-8.755 4.857-15.376 4.857-4.12 0-7.725-.736-10.74-2.208-3.018-1.472-5.445-3.458-7.357-6.033-1.913-2.575-3.31-5.518-4.193-8.828-.883-3.386-1.398-6.917-1.398-10.595 0-3.458.44-6.843 1.398-10.153.883-3.31 2.354-6.253 4.193-8.9 1.912-2.576 4.34-4.71 7.356-6.328s6.62-2.354 10.74-2.354c4.193 0 7.8.883 10.74 2.574 3.018 1.69 5.37 3.9 7.284 6.695 1.84 2.72 3.237 5.884 4.047 9.415.81 3.53 1.178 7.137 1.03 10.815h-40.39c.075 2.283.442 4.71 1.03 7.21zm31.783-19.568c-.81-2.207-1.913-4.193-3.31-5.96-1.4-1.69-3.165-3.09-5.15-4.192-2.06-1.03-4.34-1.545-6.916-1.545-2.648 0-5.003.516-6.99 1.545-2.06 1.03-3.75 2.428-5.15 4.193-1.396 1.766-2.573 3.752-3.383 6.033-.81 2.28-1.397 4.56-1.692 6.988h33.916c-.148-2.5-.59-4.855-1.325-7.062zM789.104 263.65v72.613h-6.4V263.65h6.4zM803.598 318.9c.662 2.503 1.692 4.71 3.09 6.696s3.237 3.604 5.37 4.855c2.134 1.325 4.782 1.914 7.8 1.914 4.707 0 8.312-1.25 10.96-3.68s4.488-5.664 5.52-9.784h6.4c-1.325 5.96-3.826 10.595-7.505 13.83-3.68 3.238-8.755 4.857-15.376 4.857-4.12 0-7.725-.736-10.74-2.208-3.018-1.472-5.445-3.458-7.357-6.033-1.913-2.575-3.312-5.518-4.194-8.828-.882-3.386-1.397-6.917-1.397-10.595 0-3.458.44-6.843 1.396-10.153.883-3.31 2.354-6.253 4.194-8.9 1.912-2.576 4.34-4.71 7.356-6.328s6.62-2.354 10.74-2.354c4.194 0 7.8.883 10.742 2.574 3.017 1.69 5.37 3.9 7.283 6.695 1.84 2.72 3.238 5.884 4.047 9.415.81 3.53 1.178 7.137 1.03 10.815h-40.315c0 2.283.294 4.71.956 7.21zm31.708-19.568c-.81-2.207-1.912-4.193-3.31-5.96-1.398-1.69-3.164-3.09-5.15-4.192-2.06-1.03-4.34-1.545-6.916-1.545-2.648 0-5.003.516-6.99 1.545-2.06 1.03-3.75 2.428-5.148 4.193-1.397 1.692-2.575 3.752-3.384 6.033-.883 2.28-1.398 4.56-1.692 6.988h33.915c-.073-2.5-.515-4.855-1.324-7.062zM880.698 283.736v8.828h.294c1.692-3.237 3.9-5.813 6.62-7.652 2.724-1.838 6.255-2.72 10.522-2.72 3.458 0 6.622.882 9.417 2.573 2.797 1.69 4.71 4.268 5.666 7.725 1.545-3.457 3.9-6.033 6.915-7.725 3.018-1.69 6.328-2.574 9.786-2.574 11.624 0 17.362 6.106 17.362 18.393v35.607h-6.4v-35.24c0-4.34-.883-7.65-2.722-9.93-1.84-2.282-5.076-3.386-9.638-3.386-2.796 0-5.076.516-6.916 1.545-1.84 1.03-3.31 2.427-4.34 4.192-1.105 1.766-1.84 3.752-2.28 6.033-.442 2.28-.663 4.635-.663 7.063v29.648h-6.4V300.51c0-1.766-.222-3.458-.59-5.003-.367-1.618-.956-3.017-1.84-4.193s-1.985-2.134-3.383-2.796c-1.398-.662-3.164-1.03-5.15-1.03-2.722 0-5.076.516-7.063 1.472-1.986.957-3.605 2.354-4.855 4.047-1.252 1.766-2.208 3.752-2.797 6.105-.59 2.354-.883 4.93-.883 7.65v29.28h-6.4V283.59h5.738v.148zM989.73 284.47c3.09 1.474 5.663 3.46 7.797 6.034 2.134 2.502 3.68 5.444 4.782 8.755 1.103 3.383 1.617 6.914 1.617 10.74 0 3.825-.515 7.356-1.618 10.74-1.105 3.385-2.65 6.254-4.783 8.756-2.134 2.5-4.708 4.487-7.798 5.96-3.092 1.47-6.623 2.206-10.596 2.206s-7.504-.736-10.594-2.207c-3.09-1.472-5.665-3.458-7.798-5.96-2.134-2.5-3.68-5.443-4.782-8.754-1.104-3.384-1.62-6.915-1.62-10.74 0-3.826.517-7.357 1.62-10.74s2.648-6.254 4.782-8.756c2.133-2.5 4.708-4.488 7.798-6.033 3.09-1.47 6.62-2.206 10.594-2.206 3.972-.073 7.504.736 10.595 2.207zm-18.69 5.078c-2.28 1.324-4.192 3.017-5.737 5.076-1.545 2.134-2.648 4.487-3.457 7.136-.81 2.648-1.178 5.37-1.178 8.167 0 2.795.368 5.518 1.178 8.166.81 2.648 1.912 5.076 3.457 7.136 1.545 2.133 3.458 3.825 5.738 5.075 2.282 1.324 5.004 1.913 8.02 1.913 3.017 0 5.74-.662 8.02-1.913 2.28-1.324 4.194-3.016 5.74-5.076 1.544-2.134 2.647-4.488 3.456-7.137.81-2.648 1.178-5.37 1.178-8.166 0-2.796-.368-5.52-1.178-8.167-.81-2.648-1.912-5.076-3.457-7.136-1.546-2.134-3.46-3.825-5.74-5.076-2.28-1.324-5.003-1.913-8.02-1.913-3.016 0-5.664.59-8.02 1.913zM1051.158 336.19v-9.932h-.22c-.663 1.692-1.693 3.237-3.018 4.708-1.324 1.398-2.795 2.648-4.487 3.605-1.692.957-3.53 1.767-5.444 2.28-1.914.517-3.826.81-5.74.81-3.972 0-7.503-.735-10.445-2.206-2.943-1.472-5.37-3.458-7.357-6.033-1.986-2.573-3.458-5.517-4.34-8.827-.957-3.384-1.398-6.915-1.398-10.594 0-3.753.44-7.284 1.397-10.595.956-3.385 2.428-6.327 4.34-8.828 1.987-2.575 4.415-4.563 7.358-6.033 2.942-1.47 6.4-2.207 10.446-2.207 1.987 0 3.9.22 5.74.736 1.838.514 3.604 1.176 5.223 2.207 1.618.955 3.09 2.207 4.34 3.604 1.25 1.397 2.208 3.09 2.87 5.003h.22v-30.09h6.4v72.613h-5.885v-.22zm-35.093-18.097c.662 2.648 1.692 5.076 3.017 7.136 1.397 2.133 3.164 3.825 5.37 5.15 2.134 1.323 4.782 1.985 7.8 1.985 3.383 0 6.252-.662 8.606-1.986s4.268-3.018 5.665-5.15c1.472-2.134 2.5-4.488 3.163-7.137s.957-5.37.957-8.093-.295-5.37-.957-8.093c-.662-2.648-1.69-5.076-3.163-7.136-1.472-2.133-3.385-3.825-5.665-5.15-2.354-1.323-5.224-1.985-8.607-1.985-3.016 0-5.664.662-7.797 1.986-2.134 1.325-3.974 3.018-5.37 5.15-1.398 2.134-2.43 4.488-3.018 7.137-.662 2.648-.956 5.37-.956 8.093 0 2.722.293 5.37.955 8.093zM1068.006 291.902c1.104-2.207 2.574-4.047 4.414-5.518 1.84-1.398 4.046-2.502 6.548-3.164 2.5-.662 5.297-1.03 8.313-1.03 2.28 0 4.636.222 6.916.663s4.34 1.25 6.18 2.5c1.84 1.252 3.31 2.943 4.488 5.15 1.177 2.207 1.69 5.076 1.69 8.607v27.883c0 2.575 1.252 3.9 3.754 3.9.735 0 1.397-.148 2.06-.442v5.37c-.735.148-1.397.222-1.986.296-.59.073-1.324.073-2.207.073-1.618 0-2.943-.222-3.9-.663s-1.765-1.104-2.28-1.913c-.515-.81-.882-1.766-1.103-2.87-.147-1.103-.22-2.353-.22-3.677h-.222c-1.178 1.69-2.354 3.236-3.532 4.487-1.177 1.324-2.5 2.428-3.973 3.31-1.47.884-3.09 1.546-5.002 2.06-1.84.442-4.047.737-6.622.737-2.427 0-4.707-.294-6.84-.882-2.135-.59-3.974-1.472-5.592-2.723-1.62-1.25-2.87-2.87-3.752-4.78-.883-1.914-1.398-4.194-1.398-6.843 0-3.68.81-6.548 2.428-8.608 1.62-2.06 3.752-3.678 6.475-4.708 2.65-1.104 5.666-1.84 9.05-2.28 3.385-.442 6.77-.884 10.227-1.25 1.324-.148 2.574-.296 3.53-.517 1.03-.222 1.84-.59 2.576-1.105.662-.515 1.177-1.177 1.545-2.06.367-.883.588-2.06.588-3.458 0-2.133-.367-3.973-1.104-5.37-.735-1.397-1.692-2.5-2.942-3.31-1.25-.81-2.723-1.398-4.34-1.693-1.693-.295-3.46-.44-5.37-.44-4.048 0-7.358.956-9.934 2.868-2.574 1.913-3.898 5.003-4.046 9.27h-6.4c.293-3.014.956-5.663 1.986-7.87zm32.076 15.67c-.44.735-1.178 1.324-2.354 1.618-1.177.368-2.134.59-3.017.736-2.72.44-5.517.883-8.386 1.25-2.87.368-5.518.957-7.87 1.692-2.355.735-4.342 1.84-5.814 3.237-1.545 1.397-2.28 3.384-2.28 5.96 0 1.617.294 3.09.956 4.34.662 1.25 1.472 2.354 2.575 3.236s2.355 1.62 3.753 2.062c1.397.44 2.87.735 4.34.735 2.43 0 4.782-.368 6.99-1.104s4.192-1.84 5.812-3.237c1.692-1.397 3.017-3.163 3.973-5.15.956-2.06 1.472-4.34 1.472-6.915v-8.312h-.147v-.146zM1118.842 325.45h8.534v10.74h-8.534v-10.74zm.81-61.8h6.914v21.63l-1.545 32.813h-3.897l-1.545-32.812v-21.63h.073z"/></g></svg>