<?xml version="1.0" encoding="utf-8"?>
<!-- Generator: Adobe Illustrator 16.0.0, SVG Export Plug-In . SVG Version: 6.00 Build 0)  -->
<!DOCTYPE svg PUBLIC "-//W3C//DTD SVG 1.1//EN" "http://www.w3.org/Graphics/SVG/1.1/DTD/svg11.dtd">
<svg version="1.1"
	 id="svg2" xmlns:dc="http://purl.org/dc/elements/1.1/" xmlns:cc="http://creativecommons.org/ns#" xmlns:rdf="http://www.w3.org/1999/02/22-rdf-syntax-ns#" xmlns:svg="http://www.w3.org/2000/svg"
	 xmlns="http://www.w3.org/2000/svg" xmlns:xlink="http://www.w3.org/1999/xlink" x="0px" y="0px" width="552px" height="201px"
	 viewBox="214.76 228.35 552 201" enable-background="new 214.76 228.35 552 201" xml:space="preserve">
<g id="g10" transform="matrix(1.3333333,0,0,-1.3333333,0,793.7)">
	<g id="g12">
		<g>
			<defs>
				<rect id="SVGID_1_" x="92.35" y="246.957" width="549.76" height="202.35"/>
			</defs>
			<clipPath id="SVGID_2_">
				<use xlink:href="#SVGID_1_"  overflow="visible"/>
			</clipPath>
			<g id="g14" clip-path="url(#SVGID_2_)">
				<g id="g20" transform="translate(278.2236,313.1201)">
					<path id="path22" fill="#CC292B" d="M0,0c-12.38-13.615-32.575-22.769-53.849-22.769c-22.91,0-40.825,10.615-47.399,25.987
						h15.392c6.853-12.097,22.004-20.213,40.975-20.213C-27.646-16.995-11.202-10.296,0,0 M-91.248,68.179
						c12.331,13.56,32.446,22.676,53.636,22.676c22.82,0,40.664-10.571,47.213-25.881H-5.73
						c-6.826,12.048-21.917,20.131-40.813,20.131C-63.711,85.105-80.091,78.434-91.248,68.179"/>
				</g>
				<g id="g24" transform="translate(177.8091,326.5649)">
					<path id="path26" fill="#003082" d="M0,0l5.139,27.801c1.011,5.223,1.6,9.689,2.106,13.395h10.446l-0.757-6.739
						c3.959,5.308,8.929,7.667,14.237,7.667c6.571,0,9.435-4.212,9.772-7.836c3.707,5.308,8.847,7.836,14.238,7.836
						c6.319,0,10.026-4.128,10.026-11.121c0-1.685-0.337-4.971-0.674-7.076L60.068,0H48.273L52.4,22.494
						c0.338,1.601,0.59,3.37,0.59,4.97c0,2.865-1.263,4.887-4.043,4.887c-4.044,0-8.088-5.392-9.688-13.732L35.804,0h-11.71
						l4.297,22.662c0.252,1.601,0.505,3.202,0.505,4.634c0,2.865-0.927,5.055-3.875,5.055c-4.128,0-8.425-5.729-9.857-13.816
						L11.709,0H0z M81.204,41.196l2.527-17.944c0.59-4.296,1.011-7.245,1.348-9.856c1.095,2.526,2.022,5.139,3.792,9.604
						l7.497,18.196h12.805L94.43,11.542C88.955,0.59,84.068-6.823,78.592-11.963c-4.801-4.548-10.53-6.655-13.227-7.076L62.67-8.593
						c1.937,0.59,4.633,1.601,6.992,3.201c2.78,1.938,5.139,4.382,6.74,7.162c0.338,0.673,0.338,1.179,0.168,2.022l-8.088,37.404
						H81.204z M212.617,52.317l-2.106-11.121h8.846l-1.855-9.266h-8.76l-2.781-13.901c-0.336-1.601-0.674-3.707-0.674-5.139
						c0-2.022,0.842-3.454,3.539-3.454c1.01,0,2.273,0,3.285,0.168l-1.348-9.52c-1.6-0.589-4.633-0.926-7.161-0.926
						c-7.33,0-10.783,3.707-10.783,8.93c0,2.19,0.252,4.465,0.927,7.582l3.117,16.26h-5.224l1.685,9.266h5.309l1.515,7.752
						L212.617,52.317z M104.733,0l5.223,27.801c1.012,5.223,1.685,9.689,2.19,13.395h10.699l-0.757-6.823
						c4.043,5.307,9.182,7.751,14.574,7.751c6.74,0,10.614-4.128,10.614-11.291c0-1.852-0.337-4.885-0.673-6.906L142.054,0h-12.131
						l4.296,22.831c0.253,1.432,0.421,3.033,0.421,4.549c0,2.949-1.01,4.971-4.128,4.971c-3.959,0-8.508-4.971-10.278-14.069
						L116.865,0H104.733z M183.88,2.443C179.079,0,173.097-0.842,168.548-0.842c-11.794,0-17.86,6.655-17.86,17.355
						c0,12.553,9.099,25.611,24.01,25.611c8.341,0,14.322-4.719,14.322-12.385c0-10.447-10.194-14.238-26.706-13.817
						c0-1.178,0.421-3.032,1.264-4.211c1.6-2.022,4.38-3.118,7.919-3.118c4.464,0,8.255,1.011,11.542,2.613L183.88,2.443z
						 M177.646,29.823c0,2.023-1.685,3.454-4.464,3.454c-5.644,0-8.846-4.717-9.689-8.508c9.436-0.085,14.153,1.179,14.153,4.97
						V29.823z"/>
				</g>
			</g>
		</g>
	</g>
	<text transform="matrix(0.75 0 0 -0.75 400.0006 327.2544)" fill="#003082" font-family="'MyriadPro-It'" font-size="111.892">o</text>
	<text transform="matrix(0.75 0 0 -0.75 443.2186 327.2544)" fill="#003082" font-family="'MyriadPro-It'" font-size="111.892">y</text>
	<text transform="matrix(0.75 0 0 -0.75 480.2271 327.2544)" fill="#003082" font-family="'MyriadPro-It'" font-size="111.892">u</text>
	<text transform="matrix(0.75 0 0 -0.75 524.368 327.2544)" fill="#003082" font-family="'MyriadPro-It'" font-size="111.892">n</text>
</g>
</svg>
