<?xml version="1.0" encoding="UTF-8" standalone="no"?>
<svg
   xmlns:dc="http://purl.org/dc/elements/1.1/"
   xmlns:cc="http://creativecommons.org/ns#"
   xmlns:rdf="http://www.w3.org/1999/02/22-rdf-syntax-ns#"
   xmlns:svg="http://www.w3.org/2000/svg"
   xmlns="http://www.w3.org/2000/svg"
   viewBox="0 0 1122.52 793.70001"
   height="793.70001"
   width="1122.52"
   xml:space="preserve"
   id="svg2"
   version="1.1"><metadata
     id="metadata8"><rdf:RDF><cc:Work
         rdf:about=""><dc:format>image/svg+xml</dc:format><dc:type
           rdf:resource="http://purl.org/dc/dcmitype/StillImage" /></cc:Work></rdf:RDF></metadata><defs
     id="defs6"><clipPath
       id="clipPath18"
       clipPathUnits="userSpaceOnUse"><path
         id="path16"
         d="M 0,595.275 H 841.89 V 0 H 0 Z" /></clipPath></defs><g
     transform="matrix(1.3333333,0,0,-1.3333333,0,793.7)"
     id="g10"><g
       id="g12"><g
         clip-path="url(#clipPath18)"
         id="g14"><g
           transform="translate(278.2236,313.1201)"
           id="g20"><path
             id="path22"
             style="fill:#cc292b;fill-opacity:1;fill-rule:nonzero;stroke:none"
             d="m 0,0 c -12.38,-13.615 -32.575,-22.769 -53.849,-22.769 -22.91,0 -40.825,10.615 -47.399,25.987 h 15.392 c 6.853,-12.097 22.004,-20.213 40.975,-20.213 17.235,0 33.679,6.699 44.881,16.995 m -91.248,68.179 c 12.331,13.56 32.446,22.676 53.636,22.676 22.82,0 40.664,-10.571 47.213,-25.881 H -5.73 c -6.826,12.048 -21.917,20.131 -40.813,20.131 -17.168,0 -33.548,-6.671 -44.705,-16.926" /></g><g
           transform="translate(177.8091,326.5649)"
           id="g24"><path
             id="path26"
             style="fill:#003082;fill-opacity:1;fill-rule:nonzero;stroke:none"
             d="m 0,0 5.139,27.801 c 1.011,5.223 1.6,9.689 2.106,13.395 h 10.446 l -0.757,-6.739 c 3.959,5.308 8.929,7.667 14.237,7.667 6.571,0 9.435,-4.212 9.772,-7.836 3.707,5.308 8.847,7.836 14.238,7.836 6.319,0 10.026,-4.128 10.026,-11.121 0,-1.685 -0.337,-4.971 -0.674,-7.076 L 60.068,0 H 48.273 L 52.4,22.494 c 0.338,1.601 0.59,3.37 0.59,4.97 0,2.865 -1.263,4.887 -4.043,4.887 -4.044,0 -8.088,-5.392 -9.688,-13.732 L 35.804,0 h -11.71 l 4.297,22.662 c 0.252,1.601 0.505,3.202 0.505,4.634 0,2.865 -0.927,5.055 -3.875,5.055 -4.128,0 -8.425,-5.729 -9.857,-13.816 L 11.709,0 Z m 81.204,41.196 2.527,-17.944 c 0.59,-4.296 1.011,-7.245 1.348,-9.856 1.095,2.526 2.022,5.139 3.792,9.604 l 7.497,18.196 h 12.805 L 94.43,11.542 C 88.955,0.59 84.068,-6.823 78.592,-11.963 73.791,-16.511 68.062,-18.618 65.365,-19.039 L 62.67,-8.593 c 1.937,0.59 4.633,1.601 6.992,3.201 2.78,1.938 5.139,4.382 6.739,7.162 0.338,0.673 0.338,1.179 0.169,2.022 l -8.088,37.404 z m 131.413,11.121 -2.106,-11.121 h 8.846 l -1.855,-9.266 h -8.76 l -2.781,-13.901 c -0.336,-1.601 -0.674,-3.707 -0.674,-5.139 0,-2.022 0.842,-3.454 3.539,-3.454 1.01,0 2.274,0 3.285,0.168 l -1.348,-9.52 c -1.6,-0.589 -4.634,-0.926 -7.161,-0.926 -7.33,0 -10.783,3.707 -10.783,8.93 0,2.19 0.252,4.465 0.927,7.582 l 3.117,16.26 h -5.224 l 1.685,9.266 h 5.308 l 1.515,7.752 z M 104.733,0 l 5.223,27.801 c 1.012,5.223 1.685,9.689 2.19,13.395 h 10.699 l -0.757,-6.823 c 4.043,5.307 9.183,7.751 14.575,7.751 6.74,0 10.614,-4.128 10.614,-11.291 0,-1.852 -0.337,-4.885 -0.673,-6.906 L 142.054,0 h -12.131 l 4.296,22.831 c 0.253,1.432 0.421,3.033 0.421,4.549 0,2.949 -1.01,4.971 -4.128,4.971 -3.959,0 -8.508,-4.971 -10.278,-14.069 L 116.865,0 Z M 183.88,2.443 C 179.079,0 173.097,-0.842 168.548,-0.842 c -11.794,0 -17.86,6.655 -17.86,17.355 0,12.553 9.099,25.611 24.01,25.611 8.341,0 14.322,-4.719 14.322,-12.385 0,-10.447 -10.194,-14.238 -26.706,-13.817 0,-1.178 0.421,-3.032 1.264,-4.211 1.6,-2.022 4.38,-3.118 7.919,-3.118 4.464,0 8.255,1.011 11.542,2.613 z m -6.234,27.38 c 0,2.023 -1.685,3.454 -4.464,3.454 -5.644,0 -8.846,-4.717 -9.689,-8.508 9.436,-0.085 14.153,1.179 14.153,4.97 z" /></g></g></g><text
       id="text30"
       style="font-style:italic;font-variant:normal;font-weight:normal;font-stretch:normal;font-size:83.91899872px;font-family:'Myriad Pro';-inkscape-font-specification:MyriadPro-It;writing-mode:lr-tb;fill:#003082;fill-opacity:1;fill-rule:nonzero;stroke:none"
       transform="matrix(1,0,0,-1,400.001,327.2539)"><tspan
         id="tspan28"
         y="0"
         x="0 43.218285 80.226562 124.36796">oyun</tspan></text>
</g></svg>