<?xml version="1.0" encoding="UTF-8" standalone="no"?>
<svg
   xmlns:dc="http://purl.org/dc/elements/1.1/"
   xmlns:cc="http://creativecommons.org/ns#"
   xmlns:rdf="http://www.w3.org/1999/02/22-rdf-syntax-ns#"
   xmlns:svg="http://www.w3.org/2000/svg"
   xmlns="http://www.w3.org/2000/svg"
   id="svg8"
   version="1.1"
   viewBox="0 0 106.27639 106.27639"
   height="106.27639mm"
   width="106.27639mm">
  <defs
     id="defs2">
    <clipPath
       clipPathUnits="userSpaceOnUse"
       id="clipPath3696">
      <path
         d="m 0,260.37 302.533,0 L 302.533,0 0,0 Z"
         id="path3694" />
    </clipPath>
  </defs>
  <metadata
     id="metadata5">
    <rdf:RDF>
      <cc:Work
         rdf:about="">
        <dc:format>image/svg+xml</dc:format>
        <dc:type
           rdf:resource="http://purl.org/dc/dcmitype/StillImage" />
        <dc:title></dc:title>
      </cc:Work>
    </rdf:RDF>
  </metadata>
  <g
     transform="translate(-7.2082912,8.2507607)"
     id="layer1">
    <g
       id="g3688"
       transform="matrix(0.35277777,0,0,-0.35277777,7.5818686,90.630399)">
      <g
         id="g3690">
        <g
           id="g3692"
           clip-path="url(#clipPath3696)">
          <g
             id="g3698"
             transform="translate(98.2378,124.6516)">
            <path
               d="m 0,0 c -0.023,0 -0.044,0.006 -0.065,0.019 l -43.508,25.119 c -0.054,0.031 -0.065,0.079 -0.065,0.114 0,0.035 0.011,0.083 0.065,0.114 l 43.508,25.12 c 0.019,0.003 0.035,0.004 0.052,0.004 0.089,0 0.146,-0.042 0.146,-0.119 l 0,-50.238 C 0.133,0.042 0.053,0 0,0"
               style="fill:#b1179c;fill-opacity:1;fill-rule:nonzero;stroke:none"
               id="path3700" />
          </g>
          <g
             id="g3702"
             transform="translate(102.1535,124.6516)">
            <path
               d="m 0,0 c -0.053,0 -0.133,0.042 -0.133,0.133 l 0,50.238 c 0,0.091 0.08,0.134 0.134,0.134 L 43.573,25.366 c 0.054,-0.031 0.066,-0.079 0.066,-0.114 0,-0.035 -0.012,-0.083 -0.066,-0.114 L 0.065,0.019 Z"
               style="fill:#c5004c;fill-opacity:1;fill-rule:nonzero;stroke:none"
               id="path3704" />
          </g>
          <g
             id="g3706"
             transform="translate(147.6162,96.1435)">
            <path
               d="m 0,0 c -0.023,0 -0.044,0.006 -0.065,0.018 l -43.508,25.119 c -0.054,0.032 -0.065,0.08 -0.065,0.115 0,0.035 0.011,0.082 0.065,0.114 l 43.508,25.119 c 0.019,0.003 0.035,0.005 0.052,0.005 0.089,0 0.146,-0.043 0.146,-0.12 l 0,-50.237 C 0.133,0.042 0.053,0 0,0"
               style="fill:#c92327;fill-opacity:1;fill-rule:nonzero;stroke:none"
               id="path3708" />
          </g>
          <g
             id="g3710"
             transform="translate(151.5331,96.1435)">
            <path
               d="m 0,0 c -0.055,0 -0.134,0.042 -0.134,0.133 l 0,50.237 c 0,0.091 0.079,0.134 0.134,0.134 L 43.571,25.366 c 0.055,-0.032 0.067,-0.08 0.067,-0.114 0,-0.035 -0.012,-0.083 -0.067,-0.115 L 0.064,0.018 Z"
               style="fill:#e88100;fill-opacity:1;fill-rule:nonzero;stroke:none"
               id="path3712" />
          </g>
          <g
             id="g3714"
             transform="translate(196.9946,124.6516)">
            <path
               d="m 0,0 c -0.023,0 -0.044,0.007 -0.065,0.019 l -43.508,25.119 c -0.054,0.031 -0.065,0.079 -0.065,0.114 0,0.035 0.011,0.083 0.065,0.116 l 43.508,25.118 c 0.019,0.003 0.035,0.004 0.052,0.004 0.089,0 0.146,-0.042 0.146,-0.119 l 0,-50.237 C 0.133,0.043 0.053,0 0,0"
               style="fill:#ffb000;fill-opacity:1;fill-rule:nonzero;stroke:none"
               id="path3716" />
          </g>
          <g
             id="g3718"
             transform="translate(200.9103,124.6516)">
            <path
               d="m 0,0 c -0.053,0 -0.133,0.042 -0.133,0.133 l 0,50.238 c 0,0.091 0.08,0.134 0.134,0.134 L 43.573,25.366 c 0.054,-0.031 0.066,-0.079 0.066,-0.114 0,-0.035 -0.012,-0.083 -0.066,-0.114 L 0.065,0.019 Z"
               style="fill:#f9dc00;fill-opacity:1;fill-rule:nonzero;stroke:none"
               id="path3720" />
          </g>
          <g
             id="g3722"
             transform="translate(246.373,153.1602)">
            <path
               d="m 0,0 c -0.023,0 -0.044,0.007 -0.065,0.019 l -43.508,25.119 c -0.054,0.031 -0.065,0.079 -0.065,0.114 0,0.035 0.011,0.083 0.065,0.116 l 43.508,25.118 c 0.019,0.003 0.035,0.004 0.052,0.004 0.089,0 0.146,-0.042 0.146,-0.119 l 0,-50.237 C 0.133,0.043 0.053,0 0,0"
               style="fill:#b1b800;fill-opacity:1;fill-rule:nonzero;stroke:none"
               id="path3724" />
          </g>
          <g
             id="g3726"
             transform="translate(200.9103,181.6688)">
            <path
               d="m 0,0 c -0.053,0 -0.133,0.042 -0.133,0.133 l 0,50.238 c 0,0.091 0.08,0.134 0.134,0.134 L 43.573,25.366 c 0.054,-0.031 0.066,-0.079 0.066,-0.114 0,-0.035 -0.012,-0.083 -0.066,-0.114 L 0.065,0.019 Z"
               style="fill:#47a61d;fill-opacity:1;fill-rule:nonzero;stroke:none"
               id="path3728" />
          </g>
          <g
             id="g3730"
             transform="translate(196.9946,181.6688)">
            <path
               d="m 0,0 c -0.023,0 -0.044,0.007 -0.065,0.019 l -43.508,25.119 c -0.054,0.031 -0.065,0.079 -0.065,0.114 0,0.035 0.011,0.083 0.065,0.116 l 43.508,25.118 c 0.019,0.003 0.035,0.004 0.052,0.004 0.089,0 0.146,-0.042 0.146,-0.119 l 0,-50.237 C 0.133,0.043 0.053,0 0,0"
               style="fill:#1e8c64;fill-opacity:1;fill-rule:nonzero;stroke:none"
               id="path3732" />
          </g>
          <g
             id="g3734"
             transform="translate(151.5319,153.1602)">
            <path
               d="m 0,0 c -0.053,0 -0.133,0.042 -0.133,0.133 l 0,50.238 c 0,0.091 0.08,0.134 0.134,0.134 L 43.573,25.367 c 0.054,-0.032 0.066,-0.08 0.066,-0.115 0,-0.035 -0.012,-0.083 -0.066,-0.114 L 0.065,0.019 Z"
               style="fill:#008da3;fill-opacity:1;fill-rule:nonzero;stroke:none"
               id="path3736" />
          </g>
          <g
             id="g3738"
             transform="translate(147.6162,153.1602)">
            <path
               d="m 0,0 c -0.023,0 -0.044,0.007 -0.065,0.019 l -43.508,25.119 c -0.054,0.031 -0.065,0.079 -0.065,0.114 0,0.035 0.011,0.083 0.065,0.116 l 43.508,25.118 c 0.019,0.003 0.035,0.004 0.052,0.004 0.089,0 0.146,-0.042 0.146,-0.119 l 0,-50.237 C 0.133,0.043 0.053,0 0,0"
               style="fill:#3685bd;fill-opacity:1;fill-rule:nonzero;stroke:none"
               id="path3740" />
          </g>
          <g
             id="g3742"
             transform="translate(102.1547,181.6682)">
            <path
               d="m 0,0 c -0.043,0 -0.134,0.034 -0.134,0.134 l 0,50.238 c 0,0.099 0.091,0.133 0.134,0.133 L 43.571,25.367 c 0.055,-0.032 0.067,-0.08 0.067,-0.115 0,-0.034 -0.012,-0.082 -0.067,-0.114 L 0.064,0.019 Z"
               style="fill:#4caee5;fill-opacity:1;fill-rule:nonzero;stroke:none"
               id="path3744" />
          </g>
          <g
             id="g3746"
             transform="translate(98.2378,181.6688)">
            <path
               d="m 0,0 c -0.023,0 -0.044,0.007 -0.065,0.019 l -43.508,25.119 c -0.054,0.031 -0.065,0.079 -0.065,0.114 0,0.035 0.011,0.083 0.065,0.116 l 43.508,25.118 c 0.019,0.003 0.035,0.004 0.052,0.004 0.089,0 0.146,-0.042 0.146,-0.119 l 0,-50.237 C 0.133,0.043 0.053,0 0,0"
               style="fill:#3875e1;fill-opacity:1;fill-rule:nonzero;stroke:none"
               id="path3748" />
          </g>
          <g
             id="g3750"
             transform="translate(52.7751,153.1602)">
            <path
               d="m 0,0 c -0.053,0 -0.133,0.042 -0.133,0.133 l 0,50.238 c 0,0.091 0.08,0.134 0.134,0.134 L 43.573,25.367 c 0.054,-0.032 0.066,-0.08 0.066,-0.115 0,-0.035 -0.012,-0.083 -0.066,-0.114 L 0.065,0.019 Z"
               style="fill:#782f93;fill-opacity:1;fill-rule:nonzero;stroke:none"
               id="path3752" />
          </g>
          <g
             id="g3754"
             transform="translate(31.2266,40.948)">
            <path
               d="M 0,0 3.874,0 C 4.819,0 5.644,0.115 6.347,0.347 7.05,0.579 7.632,0.91 8.092,1.341 8.553,1.773 8.898,2.298 9.128,2.918 9.358,3.537 9.473,4.228 9.473,4.991 9.473,5.716 9.358,6.373 9.128,6.96 8.898,7.549 8.553,8.049 8.092,8.462 7.632,8.875 7.05,9.19 6.347,9.409 5.644,9.628 4.819,9.737 3.874,9.737 L 0,9.737 Z m 0,-3.94 0,-9.549 -5.158,0 0,27.129 9.032,0 c 1.853,0 3.458,-0.213 4.813,-0.638 1.355,-0.426 2.474,-1.02 3.355,-1.783 C 12.925,10.456 13.577,9.543 13.999,8.48 14.42,7.417 14.631,6.254 14.631,4.991 14.631,3.677 14.407,2.474 13.96,1.379 13.513,0.284 12.841,-0.656 11.947,-1.444 11.052,-2.232 9.933,-2.846 8.591,-3.283 7.249,-3.721 5.676,-3.94 3.874,-3.94 Z"
               style="fill:#2a2521;fill-opacity:1;fill-rule:nonzero;stroke:none"
               id="path3756" />
          </g>
          <path
             d="m 61.045,27.459 -5.177,0 0,27.129 5.177,0 z"
             style="fill:#2a2521;fill-opacity:1;fill-rule:nonzero;stroke:none"
             id="path3758" />
          <g
             id="g3760"
             transform="translate(79.3003,41.4171)">
            <path
               d="m 0,0 -8.84,13.17 5.139,0 c 0.358,0 0.617,-0.046 0.777,-0.14 0.159,-0.094 0.303,-0.247 0.431,-0.46 L 3.816,2.608 C 3.88,2.77 3.95,2.93 4.027,3.086 4.104,3.242 4.193,3.402 4.295,3.565 l 5.772,8.911 c 0.281,0.463 0.646,0.694 1.093,0.694 l 4.948,0 -8.936,-12.964 9.185,-14.164 -5.158,0 c -0.345,0 -0.623,0.087 -0.834,0.262 -0.211,0.176 -0.387,0.375 -0.528,0.6 L 3.413,-2.701 C 3.362,-2.852 3.305,-2.992 3.241,-3.124 3.177,-3.255 3.113,-3.377 3.049,-3.489 l -6.155,-9.607 c -0.141,-0.212 -0.314,-0.409 -0.518,-0.59 -0.205,-0.182 -0.46,-0.272 -0.767,-0.272 l -4.833,0 z"
               style="fill:#2a2521;fill-opacity:1;fill-rule:nonzero;stroke:none"
               id="path3762" />
          </g>
          <g
             id="g3764"
             transform="translate(108.6768,40.5016)">
            <path
               d="m 0,0 4.411,0 c 1.061,0 1.997,0.139 2.809,0.416 0.811,0.276 1.492,0.664 2.042,1.162 0.55,0.498 0.965,1.093 1.246,1.786 0.282,0.694 0.422,1.456 0.422,2.287 0,1.727 -0.54,3.076 -1.62,4.046 -1.081,0.97 -2.713,1.455 -4.899,1.455 l -4.411,0 z m 0,-2.911 0,-10.132 -3.701,0 0,27.087 8.112,0 c 1.738,0 3.25,-0.198 4.535,-0.595 1.284,-0.397 2.348,-0.961 3.192,-1.692 0.844,-0.731 1.474,-1.613 1.889,-2.647 C 14.442,8.077 14.65,6.925 14.65,5.651 14.65,4.392 14.427,3.238 13.979,2.192 13.532,1.146 12.876,0.245 12.014,-0.511 11.151,-1.267 10.08,-1.855 8.802,-2.278 7.523,-2.7 6.06,-2.911 4.411,-2.911 Z"
               style="fill:#2a2521;fill-opacity:1;fill-rule:nonzero;stroke:none"
               id="path3766" />
          </g>
          <g
             id="g3768"
             transform="translate(137.1143,30.5397)">
            <path
               d="m 0,0 11.889,0 0,-3.081 -15.609,0 0,27.087 3.72,0 z"
               style="fill:#2a2521;fill-opacity:1;fill-rule:nonzero;stroke:none"
               id="path3770" />
          </g>
          <path
             d="m 162.886,27.459 -3.72,0 0,27.087 3.72,0 z"
             style="fill:#2a2521;fill-opacity:1;fill-rule:nonzero;stroke:none"
             id="path3772" />
          <g
             id="g3774"
             transform="translate(194.9863,33.0534)">
            <path
               d="M 0,0 C 0.204,0 0.39,-0.082 0.556,-0.245 L 2.014,-1.814 C 0.889,-3.1 -0.477,-4.102 -2.081,-4.819 c -1.604,-0.719 -3.537,-1.078 -5.8,-1.078 -1.982,0 -3.778,0.336 -5.389,1.011 -1.611,0.674 -2.985,1.619 -4.123,2.835 -1.137,1.216 -2.019,2.675 -2.646,4.376 -0.626,1.701 -0.94,3.573 -0.94,5.614 0,2.042 0.336,3.914 1.007,5.615 0.671,1.701 1.615,3.163 2.828,4.384 1.215,1.223 2.669,2.171 4.364,2.846 1.693,0.674 3.563,1.011 5.608,1.011 2.02,0 3.762,-0.309 5.226,-0.926 1.464,-0.618 2.764,-1.456 3.902,-2.515 L 0.748,16.673 C 0.658,16.546 0.556,16.442 0.441,16.36 0.326,16.278 0.16,16.237 -0.058,16.237 c -0.166,0 -0.341,0.061 -0.527,0.18 -0.186,0.12 -0.406,0.268 -0.661,0.444 -0.256,0.177 -0.557,0.366 -0.901,0.568 -0.346,0.201 -0.755,0.39 -1.228,0.567 -0.473,0.176 -1.022,0.324 -1.649,0.443 -0.626,0.121 -1.349,0.18 -2.166,0.18 -1.471,0 -2.817,-0.249 -4.038,-0.746 -1.22,-0.498 -2.272,-1.207 -3.154,-2.127 -0.882,-0.92 -1.569,-2.041 -2.061,-3.364 -0.493,-1.323 -0.739,-2.805 -0.739,-4.443 0,-1.688 0.246,-3.194 0.739,-4.517 0.492,-1.323 1.163,-2.442 2.013,-3.356 0.85,-0.914 1.857,-1.609 3.021,-2.088 1.163,-0.479 2.416,-0.718 3.758,-0.718 0.818,0 1.553,0.047 2.205,0.141 0.652,0.095 1.257,0.243 1.812,0.445 0.556,0.201 1.074,0.456 1.553,0.765 0.479,0.309 0.962,0.677 1.448,1.106 C -0.416,-0.094 -0.205,0 0,0"
               style="fill:#2a2521;fill-opacity:1;fill-rule:nonzero;stroke:none"
               id="path3776" />
          </g>
          <path
             d="m 211.669,27.459 -3.72,0 0,27.087 3.72,0 z"
             style="fill:#2a2521;fill-opacity:1;fill-rule:nonzero;stroke:none"
             id="path3778" />
          <g
             id="g3780"
             transform="translate(243.1162,54.5455)">
            <path
               d="m 0,0 0,-3.081 -8.878,0 0,-24.006 -3.72,0 0,24.006 -8.917,0 0,3.081 z"
               style="fill:#2a2521;fill-opacity:1;fill-rule:nonzero;stroke:none"
               id="path3782" />
          </g>
          <g
             id="g3784"
             transform="translate(262.9834,38.233)">
            <path
               d="m 0,0 0,-10.774 -3.701,0 0,10.774 -10.068,16.312 3.26,0 c 0.332,0 0.595,-0.082 0.786,-0.245 0.193,-0.164 0.359,-0.366 0.499,-0.605 L -2.935,4.934 c 0.256,-0.442 0.47,-0.858 0.643,-1.247 0.173,-0.392 0.329,-0.776 0.47,-1.154 0.14,0.391 0.294,0.781 0.461,1.172 0.166,0.391 0.377,0.8 0.632,1.229 l 6.271,10.528 c 0.114,0.202 0.27,0.394 0.47,0.577 0.197,0.183 0.456,0.273 0.776,0.273 l 3.298,0 z"
               style="fill:#2a2521;fill-opacity:1;fill-rule:nonzero;stroke:none"
               id="path3786" />
          </g>
        </g>
      </g>
    </g>
  </g>
</svg>
