<?xml version="1.0" encoding="UTF-8"?>
<svg width="117px" height="41px" viewBox="0 0 117 41" version="1.1" xmlns="http://www.w3.org/2000/svg" xmlns:xlink="http://www.w3.org/1999/xlink">
    <!-- Generator: Sketch 47 (45396) - http://www.bohemiancoding.com/sketch -->
    <title>logo</title>
    <desc>Created with Sketch.</desc>
    <defs></defs>
    <g id="Android" stroke="none" stroke-width="1" fill="none" fill-rule="evenodd">
        <g id="elif" transform="translate(-453.000000, -54.000000)" fill="#FFFFFF">
            <g id="logo" transform="translate(453.000000, 54.000000)">
                <g id="g79">
                    <path d="M20.6829603,25.4958806 L5.23916197,0.14041791 L0.977455591,0.14041791 C0.117294671,0.14041791 -0.195491118,0.742208955 0.234589342,1.48441791 L10.5956186,18.8360597 L10.6542659,18.9162985 L17.6723971,30.4506269 L20.6829603,25.4958806 L20.6829603,25.4958806 Z" id="path81"></path>
                    <path d="M23.0679519,21.5441194 C23.5175815,20.8019104 23.5175815,19.5983284 23.0679519,18.8561194 L12.589628,1.48441791 C12.1399984,0.742208955 11.0843464,0.14041791 10.2437346,0.14041791 L5.94292999,0.14041791 L21.0348443,24.9141493 L23.0679519,21.5441194 L23.0679519,21.5441194 Z" id="path83"></path>
                    <path d="M14.2904007,26.0575522 L5.64969332,40.2598209 L10.2437346,40.2598209 C11.0843464,40.2598209 12.1595476,39.6580299 12.589628,38.9158209 L16.7731379,31.9751642 C16.7926871,31.9551045 16.8122362,31.8949254 16.8904326,31.7745672 L17.3205131,31.0524179 L14.2904007,26.0575522 L14.2904007,26.0575522 Z" id="path85"></path>
                    <path d="M10.6151677,21.5441194 L0.254138454,38.8957612 C-0.195491118,39.6379701 0.136843783,40.2397612 0.997004703,40.2397612 L4.9654744,40.2397612 L13.9580658,25.4758209 L10.9475026,20.5010149 C10.8888553,20.8821493 10.7715606,21.2432239 10.6151677,21.5441194 L10.6151677,21.5441194 Z" id="path87"></path>
                </g>
                <text id="GDG-DevFest" font-family="ProductSans-Bold, Product Sans" font-size="14" font-weight="bold">
                    <tspan x="28.76" y="18.26">GDG DevFest</tspan>
                </text>
                <text id="2017-Istanbul" font-family="ProductSans-Regular, Product Sans" font-size="12" font-weight="normal">
                    <tspan x="30.28" y="35.16">2017 Istanbul</tspan>
                </text>
            </g>
        </g>
    </g>
</svg>